<?xml version="1.0" standalone="no"?><!DOCTYPE svg PUBLIC "-//W3C//DTD SVG 1.1//EN" "http://www.w3.org/Graphics/SVG/1.1/DTD/svg11.dtd"><svg t="1775237191991" class="icon" viewBox="0 0 1024 1024" version="1.1" xmlns="http://www.w3.org/2000/svg" p-id="1770" xmlns:xlink="http://www.w3.org/1999/xlink" width="200" height="200"><path d="M840.838602 147.210649H182.479867c-48.899834 0-88.428619 41.232612-88.428619 92.177038v395.799002c0 50.774043 39.528785 92.177038 88.428619 92.177038h291.865557v84.339434h-162.715474c-11.415641 0-20.616306 12.949085-20.616306 29.135441v12.949085c0 16.015973 9.200666 29.135441 20.616306 29.135441H707.9401c11.415641 0 20.616306-12.949085 20.616306-29.135441v-12.949085c0-16.015973-9.200666-29.135441-20.616306-29.135441h-157.603994V727.53411h290.672879c48.899834 0 88.428619-41.232612 88.428619-92.177038V239.387687c-0.340765-50.774043-40.039933-92.177038-88.599002-92.177038zM645.409651 587.649917c-7.326456 7.156073-19.082862 7.156073-26.750084-0.170383L432.260899 405.340433v125.231281c0 10.052579-8.689517 18.230948-18.742097 18.230948-10.393344 0-18.742097-8.519135-18.742097-18.230948v-161.352413c0-1.363062 0.170383-2.726123 0.511149-3.918802-0.340765-1.192679-0.511148-2.55574-0.511149-3.918802 0-10.052579 8.689517-18.230948 18.742097-18.230948h165.441597c10.393344 0 18.742097 8.519135 18.742097 18.230948 0 10.052579-8.689517 18.230948-18.742097 18.230949h-120.290183l186.569052 182.139101c7.496839 7.156073 7.326456 18.912479 0.170383 25.89817z" fill="#02f8e9" p-id="1771" data-spm-anchor-id="a313x.search_index.0.i0.5ec33a81B9mWPo" class="selected"></path></svg>